# xmcd
#
# Track frame offsets: 
#        150
#        13865
#        25650
#        40922
#        62770
#        86237
#        112630
#        131420
#        143505
#        164730
#
# Disc length: 2509 seconds
#
# Revision: 0
# Processed by: cddbd v1.5.2PL0 Copyright (c) Steve Scherf et al.
# Submitted via: ExactAudioCopy v0.99pb3
#
DISCID=7c09cb0a
DTITLE=James Cotton - Live and on the move - CD 1
DYEAR=1900
DGENRE=Blues
TTITLE0=Cotton Boogie
TTITLE1=One More Mile
TTITLE2=Good Morning Lil' Schoolgirl
TTITLE3=Born in Missouri
TTITLE4=Flip Flop and Fly
TTITLE5=Fever
TTITLE6=Mojo
TTITLE7=Rocket 88
TTITLE8=Goodbye My Lady
TTITLE9=Caldonia
EXTD=
EXTT0=
EXTT1=
EXTT2=
EXTT3=
EXTT4=
EXTT5=
EXTT6=
EXTT7=
EXTT8=
EXTT9=
PLAYORDER=
